<mxfile host="app.diagrams.net" agent="Mozilla/5.0 (Windows NT 10.0; Win64; x64) AppleWebKit/537.36 (KHTML, like Gecko) Chrome/138.0.0.0 Safari/537.36" version="27.2.0">
  <diagram name="PÃ¡gina-1" id="arnJPS-IWYl5URptW7W6">
    <mxGraphModel dx="1255" dy="1421" grid="1" gridSize="10" guides="1" tooltips="1" connect="1" arrows="1" fold="1" page="1" pageScale="1" pageWidth="827" pageHeight="1169" math="0" shadow="0">
      <root>
        <mxCell id="0" />
        <mxCell id="1" parent="0" />
        <mxCell id="LXxOY_p9D4cAGSmGC75S-1" value="S.O." style="rounded=1;whiteSpace=wrap;html=1;" vertex="1" parent="1">
          <mxGeometry x="50" y="120" width="150" height="40" as="geometry" />
        </mxCell>
        <mxCell id="LXxOY_p9D4cAGSmGC75S-2" value="Windows" style="rounded=1;whiteSpace=wrap;html=1;" vertex="1" parent="1">
          <mxGeometry x="220" y="80" width="90" height="30" as="geometry" />
        </mxCell>
        <mxCell id="LXxOY_p9D4cAGSmGC75S-3" value="Mac" style="rounded=1;whiteSpace=wrap;html=1;" vertex="1" parent="1">
          <mxGeometry x="220" y="120" width="90" height="30" as="geometry" />
        </mxCell>
        <mxCell id="LXxOY_p9D4cAGSmGC75S-4" value="Linux" style="rounded=1;whiteSpace=wrap;html=1;" vertex="1" parent="1">
          <mxGeometry x="220" y="160" width="90" height="30" as="geometry" />
        </mxCell>
        <mxCell id="LXxOY_p9D4cAGSmGC75S-6" value="S.O." style="rounded=1;whiteSpace=wrap;html=1;fillColor=#dae8fc;strokeColor=#6c8ebf;" vertex="1" parent="1">
          <mxGeometry x="425" y="180" width="350" height="40" as="geometry" />
        </mxCell>
        <mxCell id="LXxOY_p9D4cAGSmGC75S-7" value="Compiladores" style="rounded=1;whiteSpace=wrap;html=1;fillColor=#d5e8d4;strokeColor=#82b366;" vertex="1" parent="1">
          <mxGeometry x="440" y="130" width="290" height="40" as="geometry" />
        </mxCell>
        <mxCell id="LXxOY_p9D4cAGSmGC75S-18" style="edgeStyle=orthogonalEdgeStyle;rounded=0;orthogonalLoop=1;jettySize=auto;html=1;entryX=0.25;entryY=0;entryDx=0;entryDy=0;exitX=0.5;exitY=0;exitDx=0;exitDy=0;" edge="1" parent="1" source="LXxOY_p9D4cAGSmGC75S-9" target="LXxOY_p9D4cAGSmGC75S-12">
          <mxGeometry relative="1" as="geometry" />
        </mxCell>
        <mxCell id="LXxOY_p9D4cAGSmGC75S-52" style="edgeStyle=orthogonalEdgeStyle;rounded=0;orthogonalLoop=1;jettySize=auto;html=1;" edge="1" parent="1" source="LXxOY_p9D4cAGSmGC75S-9" target="LXxOY_p9D4cAGSmGC75S-51">
          <mxGeometry relative="1" as="geometry" />
        </mxCell>
        <mxCell id="LXxOY_p9D4cAGSmGC75S-9" value="Servidor" style="rounded=1;whiteSpace=wrap;html=1;fillColor=#d80073;fontColor=#ffffff;strokeColor=#A50040;" vertex="1" parent="1">
          <mxGeometry x="50" y="370" width="90" height="90" as="geometry" />
        </mxCell>
        <mxCell id="LXxOY_p9D4cAGSmGC75S-13" style="edgeStyle=orthogonalEdgeStyle;rounded=0;orthogonalLoop=1;jettySize=auto;html=1;" edge="1" parent="1" source="LXxOY_p9D4cAGSmGC75S-10" target="LXxOY_p9D4cAGSmGC75S-12">
          <mxGeometry relative="1" as="geometry" />
        </mxCell>
        <mxCell id="LXxOY_p9D4cAGSmGC75S-10" value="Cliente" style="rounded=1;whiteSpace=wrap;html=1;fillColor=#6a00ff;fontColor=#ffffff;strokeColor=#3700CC;" vertex="1" parent="1">
          <mxGeometry x="330" y="370" width="90" height="90" as="geometry" />
        </mxCell>
        <mxCell id="LXxOY_p9D4cAGSmGC75S-11" value="Internet" style="ellipse;shape=cloud;whiteSpace=wrap;html=1;" vertex="1" parent="1">
          <mxGeometry x="180" y="410" width="120" height="50" as="geometry" />
        </mxCell>
        <mxCell id="LXxOY_p9D4cAGSmGC75S-14" style="edgeStyle=orthogonalEdgeStyle;rounded=0;orthogonalLoop=1;jettySize=auto;html=1;" edge="1" parent="1" source="LXxOY_p9D4cAGSmGC75S-12" target="LXxOY_p9D4cAGSmGC75S-9">
          <mxGeometry relative="1" as="geometry" />
        </mxCell>
        <mxCell id="LXxOY_p9D4cAGSmGC75S-19" style="edgeStyle=orthogonalEdgeStyle;rounded=0;orthogonalLoop=1;jettySize=auto;html=1;entryX=0.5;entryY=0;entryDx=0;entryDy=0;exitX=0.75;exitY=0;exitDx=0;exitDy=0;" edge="1" parent="1" source="LXxOY_p9D4cAGSmGC75S-12" target="LXxOY_p9D4cAGSmGC75S-10">
          <mxGeometry relative="1" as="geometry">
            <Array as="points">
              <mxPoint x="260" y="350" />
              <mxPoint x="375" y="350" />
            </Array>
          </mxGeometry>
        </mxCell>
        <mxCell id="LXxOY_p9D4cAGSmGC75S-12" value="HTTP" style="rounded=1;whiteSpace=wrap;html=1;" vertex="1" parent="1">
          <mxGeometry x="230" y="390" width="40" height="20" as="geometry" />
        </mxCell>
        <mxCell id="LXxOY_p9D4cAGSmGC75S-20" value="Movil" style="rounded=1;whiteSpace=wrap;html=1;fillColor=#ffe6cc;strokeColor=#d79b00;" vertex="1" parent="1">
          <mxGeometry x="720" y="410" width="140" height="30" as="geometry" />
        </mxCell>
        <mxCell id="LXxOY_p9D4cAGSmGC75S-21" value="Navegador" style="rounded=1;whiteSpace=wrap;html=1;fillColor=#dae8fc;strokeColor=#6c8ebf;" vertex="1" parent="1">
          <mxGeometry x="440" y="450" width="110" height="30" as="geometry" />
        </mxCell>
        <mxCell id="LXxOY_p9D4cAGSmGC75S-22" value="App Nativo" style="rounded=1;whiteSpace=wrap;html=1;fillColor=#ffe6cc;strokeColor=#d79b00;" vertex="1" parent="1">
          <mxGeometry x="440" y="360" width="110" height="80" as="geometry" />
        </mxCell>
        <mxCell id="LXxOY_p9D4cAGSmGC75S-23" value="Computador" style="rounded=1;whiteSpace=wrap;html=1;fillColor=#ffe6cc;strokeColor=#d79b00;" vertex="1" parent="1">
          <mxGeometry x="580" y="410" width="100" height="30" as="geometry" />
        </mxCell>
        <mxCell id="LXxOY_p9D4cAGSmGC75S-24" value="w" style="rounded=1;whiteSpace=wrap;html=1;fillColor=#fff2cc;strokeColor=#d6b656;" vertex="1" parent="1">
          <mxGeometry x="580" y="360" width="20" height="30" as="geometry" />
        </mxCell>
        <mxCell id="LXxOY_p9D4cAGSmGC75S-26" value="m" style="rounded=1;whiteSpace=wrap;html=1;fillColor=#fff2cc;strokeColor=#d6b656;" vertex="1" parent="1">
          <mxGeometry x="620" y="360" width="20" height="30" as="geometry" />
        </mxCell>
        <mxCell id="LXxOY_p9D4cAGSmGC75S-27" value="l" style="rounded=1;whiteSpace=wrap;html=1;fillColor=#fff2cc;strokeColor=#d6b656;" vertex="1" parent="1">
          <mxGeometry x="660" y="360" width="20" height="30" as="geometry" />
        </mxCell>
        <mxCell id="LXxOY_p9D4cAGSmGC75S-28" value="ios" style="rounded=1;whiteSpace=wrap;html=1;fillColor=#d5e8d4;strokeColor=#82b366;" vertex="1" parent="1">
          <mxGeometry x="720" y="360" width="20" height="30" as="geometry" />
        </mxCell>
        <mxCell id="LXxOY_p9D4cAGSmGC75S-29" value="android" style="rounded=1;whiteSpace=wrap;html=1;fillColor=#d5e8d4;strokeColor=#82b366;" vertex="1" parent="1">
          <mxGeometry x="760" y="360" width="60" height="30" as="geometry" />
        </mxCell>
        <mxCell id="LXxOY_p9D4cAGSmGC75S-30" value="Movil" style="rounded=1;whiteSpace=wrap;html=1;fillColor=#ffe6cc;strokeColor=#d79b00;" vertex="1" parent="1">
          <mxGeometry x="750" y="710" width="100" height="30" as="geometry" />
        </mxCell>
        <mxCell id="LXxOY_p9D4cAGSmGC75S-31" value="Computador" style="rounded=1;whiteSpace=wrap;html=1;fillColor=#ffe6cc;strokeColor=#d79b00;" vertex="1" parent="1">
          <mxGeometry x="610" y="710" width="100" height="30" as="geometry" />
        </mxCell>
        <mxCell id="LXxOY_p9D4cAGSmGC75S-32" value="w" style="rounded=1;whiteSpace=wrap;html=1;fillColor=#fff2cc;strokeColor=#d6b656;" vertex="1" parent="1">
          <mxGeometry x="610" y="660" width="20" height="30" as="geometry" />
        </mxCell>
        <mxCell id="LXxOY_p9D4cAGSmGC75S-33" value="m" style="rounded=1;whiteSpace=wrap;html=1;fillColor=#fff2cc;strokeColor=#d6b656;" vertex="1" parent="1">
          <mxGeometry x="650" y="660" width="20" height="30" as="geometry" />
        </mxCell>
        <mxCell id="LXxOY_p9D4cAGSmGC75S-34" value="l" style="rounded=1;whiteSpace=wrap;html=1;fillColor=#fff2cc;strokeColor=#d6b656;" vertex="1" parent="1">
          <mxGeometry x="690" y="660" width="20" height="30" as="geometry" />
        </mxCell>
        <mxCell id="LXxOY_p9D4cAGSmGC75S-35" value="ios" style="rounded=1;whiteSpace=wrap;html=1;fillColor=#d5e8d4;strokeColor=#82b366;" vertex="1" parent="1">
          <mxGeometry x="750" y="660" width="20" height="30" as="geometry" />
        </mxCell>
        <mxCell id="LXxOY_p9D4cAGSmGC75S-36" value="android" style="rounded=1;whiteSpace=wrap;html=1;fillColor=#d5e8d4;strokeColor=#82b366;" vertex="1" parent="1">
          <mxGeometry x="790" y="660" width="60" height="30" as="geometry" />
        </mxCell>
        <mxCell id="LXxOY_p9D4cAGSmGC75S-37" value="C#" style="rounded=1;whiteSpace=wrap;html=1;fillColor=#e1d5e7;strokeColor=#9673a6;" vertex="1" parent="1">
          <mxGeometry x="600" y="600" width="30" height="40" as="geometry" />
        </mxCell>
        <mxCell id="LXxOY_p9D4cAGSmGC75S-38" value="swift" style="rounded=1;whiteSpace=wrap;html=1;fillColor=#e1d5e7;strokeColor=#9673a6;" vertex="1" parent="1">
          <mxGeometry x="645" y="600" width="30" height="40" as="geometry" />
        </mxCell>
        <mxCell id="LXxOY_p9D4cAGSmGC75S-39" value="python" style="rounded=1;whiteSpace=wrap;html=1;fillColor=#e1d5e7;strokeColor=#9673a6;" vertex="1" parent="1">
          <mxGeometry x="680" y="600" width="45" height="40" as="geometry" />
        </mxCell>
        <mxCell id="LXxOY_p9D4cAGSmGC75S-40" value="swift" style="rounded=1;whiteSpace=wrap;html=1;fillColor=#e1d5e7;strokeColor=#9673a6;" vertex="1" parent="1">
          <mxGeometry x="745" y="600" width="30" height="40" as="geometry" />
        </mxCell>
        <mxCell id="LXxOY_p9D4cAGSmGC75S-41" value="kotlin&lt;br&gt;(java)" style="rounded=1;whiteSpace=wrap;html=1;fillColor=#e1d5e7;strokeColor=#9673a6;" vertex="1" parent="1">
          <mxGeometry x="797.5" y="600" width="45" height="40" as="geometry" />
        </mxCell>
        <mxCell id="LXxOY_p9D4cAGSmGC75S-42" value="C#" style="rounded=1;whiteSpace=wrap;html=1;fillColor=#e1d5e7;strokeColor=#9673a6;" vertex="1" parent="1">
          <mxGeometry x="10" y="490" width="30" height="40" as="geometry" />
        </mxCell>
        <mxCell id="LXxOY_p9D4cAGSmGC75S-43" value="swift" style="rounded=1;whiteSpace=wrap;html=1;fillColor=#e1d5e7;strokeColor=#9673a6;" vertex="1" parent="1">
          <mxGeometry x="50" y="490" width="30" height="40" as="geometry" />
        </mxCell>
        <mxCell id="LXxOY_p9D4cAGSmGC75S-44" value="python" style="rounded=1;whiteSpace=wrap;html=1;fillColor=#e1d5e7;strokeColor=#9673a6;" vertex="1" parent="1">
          <mxGeometry x="90" y="490" width="45" height="40" as="geometry" />
        </mxCell>
        <mxCell id="LXxOY_p9D4cAGSmGC75S-46" value="kotlin&lt;br&gt;(java)" style="rounded=1;whiteSpace=wrap;html=1;fillColor=#e1d5e7;strokeColor=#9673a6;" vertex="1" parent="1">
          <mxGeometry x="140" y="490" width="45" height="40" as="geometry" />
        </mxCell>
        <mxCell id="LXxOY_p9D4cAGSmGC75S-47" value="Js" style="rounded=1;whiteSpace=wrap;html=1;fillColor=#e1d5e7;strokeColor=#9673a6;" vertex="1" parent="1">
          <mxGeometry x="480" y="490" width="30" height="40" as="geometry" />
        </mxCell>
        <mxCell id="LXxOY_p9D4cAGSmGC75S-48" value="Js" style="rounded=1;whiteSpace=wrap;html=1;fillColor=#e1d5e7;strokeColor=#9673a6;" vertex="1" parent="1">
          <mxGeometry x="-30" y="490" width="30" height="40" as="geometry" />
        </mxCell>
        <mxCell id="LXxOY_p9D4cAGSmGC75S-49" value="Js" style="rounded=1;whiteSpace=wrap;html=1;fillColor=#d5e8d4;strokeColor=#82b366;" vertex="1" parent="1">
          <mxGeometry x="827" y="355" width="30" height="40" as="geometry" />
        </mxCell>
        <mxCell id="LXxOY_p9D4cAGSmGC75S-51" value="BDD" style="shape=cylinder3;whiteSpace=wrap;html=1;boundedLbl=1;backgroundOutline=1;size=15;fillColor=#fff2cc;strokeColor=#d6b656;" vertex="1" parent="1">
          <mxGeometry x="-80" y="375" width="60" height="80" as="geometry" />
        </mxCell>
        <mxCell id="LXxOY_p9D4cAGSmGC75S-55" value="C#" style="rounded=1;whiteSpace=wrap;html=1;fillColor=#e1d5e7;strokeColor=#9673a6;" vertex="1" parent="1">
          <mxGeometry x="535" y="30" width="30" height="40" as="geometry" />
        </mxCell>
        <mxCell id="LXxOY_p9D4cAGSmGC75S-56" value="swift" style="rounded=1;whiteSpace=wrap;html=1;fillColor=#e1d5e7;strokeColor=#9673a6;" vertex="1" parent="1">
          <mxGeometry x="575" y="30" width="30" height="40" as="geometry" />
        </mxCell>
        <mxCell id="LXxOY_p9D4cAGSmGC75S-57" value="python" style="rounded=1;whiteSpace=wrap;html=1;fillColor=#e1d5e7;strokeColor=#9673a6;" vertex="1" parent="1">
          <mxGeometry x="615" y="30" width="45" height="40" as="geometry" />
        </mxCell>
        <mxCell id="LXxOY_p9D4cAGSmGC75S-58" value="kotlin&lt;br&gt;(java)" style="rounded=1;whiteSpace=wrap;html=1;fillColor=#e1d5e7;strokeColor=#9673a6;" vertex="1" parent="1">
          <mxGeometry x="665" y="30" width="45" height="40" as="geometry" />
        </mxCell>
        <mxCell id="LXxOY_p9D4cAGSmGC75S-59" value="Js v2" style="rounded=1;whiteSpace=wrap;html=1;fillColor=#e1d5e7;strokeColor=#9673a6;" vertex="1" parent="1">
          <mxGeometry x="460" y="10" width="50" height="20" as="geometry" />
        </mxCell>
        <mxCell id="LXxOY_p9D4cAGSmGC75S-60" value="Node.js" style="rounded=1;whiteSpace=wrap;html=1;fillColor=#f8cecc;strokeColor=#b85450;" vertex="1" parent="1">
          <mxGeometry x="450" y="80" width="70" height="40" as="geometry" />
        </mxCell>
        <mxCell id="LXxOY_p9D4cAGSmGC75S-61" value="v.1" style="rounded=1;whiteSpace=wrap;html=1;fillColor=#f8cecc;strokeColor=#b85450;" vertex="1" parent="1">
          <mxGeometry x="355" y="40" width="95" height="20" as="geometry" />
        </mxCell>
        <mxCell id="LXxOY_p9D4cAGSmGC75S-62" value="v.2" style="rounded=1;whiteSpace=wrap;html=1;fillColor=#f8cecc;strokeColor=#b85450;" vertex="1" parent="1">
          <mxGeometry x="355" y="10" width="95" height="20" as="geometry" />
        </mxCell>
        <mxCell id="LXxOY_p9D4cAGSmGC75S-63" value="v.3" style="rounded=1;whiteSpace=wrap;html=1;fillColor=#f8cecc;strokeColor=#b85450;" vertex="1" parent="1">
          <mxGeometry x="355" y="-20" width="95" height="20" as="geometry" />
        </mxCell>
        <mxCell id="LXxOY_p9D4cAGSmGC75S-64" value="Js v1" style="rounded=1;whiteSpace=wrap;html=1;fillColor=#e1d5e7;strokeColor=#9673a6;" vertex="1" parent="1">
          <mxGeometry x="460" y="40" width="50" height="20" as="geometry" />
        </mxCell>
        <mxCell id="LXxOY_p9D4cAGSmGC75S-65" value="Js v3" style="rounded=1;whiteSpace=wrap;html=1;fillColor=#e1d5e7;strokeColor=#9673a6;" vertex="1" parent="1">
          <mxGeometry x="460" y="-20" width="50" height="20" as="geometry" />
        </mxCell>
        <mxCell id="LXxOY_p9D4cAGSmGC75S-67" style="edgeStyle=orthogonalEdgeStyle;rounded=0;orthogonalLoop=1;jettySize=auto;html=1;entryX=0;entryY=0.5;entryDx=0;entryDy=0;" edge="1" parent="1" source="LXxOY_p9D4cAGSmGC75S-66" target="LXxOY_p9D4cAGSmGC75S-63">
          <mxGeometry relative="1" as="geometry" />
        </mxCell>
        <mxCell id="LXxOY_p9D4cAGSmGC75S-68" style="edgeStyle=orthogonalEdgeStyle;rounded=0;orthogonalLoop=1;jettySize=auto;html=1;entryX=0;entryY=0.5;entryDx=0;entryDy=0;" edge="1" parent="1" source="LXxOY_p9D4cAGSmGC75S-66" target="LXxOY_p9D4cAGSmGC75S-62">
          <mxGeometry relative="1" as="geometry" />
        </mxCell>
        <mxCell id="LXxOY_p9D4cAGSmGC75S-66" value="Gestor Node.js" style="rounded=1;whiteSpace=wrap;html=1;fillColor=#60a917;strokeColor=#2D7600;fontColor=#ffffff;" vertex="1" parent="1">
          <mxGeometry x="250" width="70" height="40" as="geometry" />
        </mxCell>
        <mxCell id="LXxOY_p9D4cAGSmGC75S-69" style="edgeStyle=orthogonalEdgeStyle;rounded=0;orthogonalLoop=1;jettySize=auto;html=1;entryX=0;entryY=0.5;entryDx=0;entryDy=0;" edge="1" parent="1" source="LXxOY_p9D4cAGSmGC75S-66" target="LXxOY_p9D4cAGSmGC75S-61">
          <mxGeometry relative="1" as="geometry" />
        </mxCell>
        <mxCell id="LXxOY_p9D4cAGSmGC75S-70" value="Usuario" style="rounded=1;whiteSpace=wrap;html=1;" vertex="1" parent="1">
          <mxGeometry x="10" y="790" width="120" height="60" as="geometry" />
        </mxCell>
        <mxCell id="LXxOY_p9D4cAGSmGC75S-71" value="edad number" style="rounded=1;whiteSpace=wrap;html=1;" vertex="1" parent="1">
          <mxGeometry x="140" y="790" width="90" height="30" as="geometry" />
        </mxCell>
        <mxCell id="LXxOY_p9D4cAGSmGC75S-72" value="tieneHijos boolean" style="rounded=1;whiteSpace=wrap;html=1;" vertex="1" parent="1">
          <mxGeometry x="140" y="830" width="90" height="30" as="geometry" />
        </mxCell>
        <mxCell id="LXxOY_p9D4cAGSmGC75S-73" value="nombre string" style="rounded=1;whiteSpace=wrap;html=1;" vertex="1" parent="1">
          <mxGeometry x="140" y="750" width="90" height="30" as="geometry" />
        </mxCell>
        <mxCell id="LXxOY_p9D4cAGSmGC75S-74" value="Usuario" style="rounded=1;whiteSpace=wrap;html=1;" vertex="1" parent="1">
          <mxGeometry x="-220" y="950" width="120" height="60" as="geometry" />
        </mxCell>
        <mxCell id="LXxOY_p9D4cAGSmGC75S-75" value="Usuario" style="rounded=1;whiteSpace=wrap;html=1;" vertex="1" parent="1">
          <mxGeometry x="-70" y="930" width="120" height="60" as="geometry" />
        </mxCell>
        <mxCell id="LXxOY_p9D4cAGSmGC75S-76" value="edad number" style="rounded=1;whiteSpace=wrap;html=1;" vertex="1" parent="1">
          <mxGeometry x="60" y="930" width="90" height="30" as="geometry" />
        </mxCell>
        <mxCell id="LXxOY_p9D4cAGSmGC75S-77" value="tieneHijos boolean" style="rounded=1;whiteSpace=wrap;html=1;" vertex="1" parent="1">
          <mxGeometry x="60" y="970" width="90" height="30" as="geometry" />
        </mxCell>
        <mxCell id="LXxOY_p9D4cAGSmGC75S-78" value="nombre string" style="rounded=1;whiteSpace=wrap;html=1;" vertex="1" parent="1">
          <mxGeometry x="60" y="890" width="90" height="30" as="geometry" />
        </mxCell>
        <mxCell id="LXxOY_p9D4cAGSmGC75S-79" value="Usuario" style="rounded=1;whiteSpace=wrap;html=1;" vertex="1" parent="1">
          <mxGeometry x="-70" y="1060" width="120" height="60" as="geometry" />
        </mxCell>
        <mxCell id="LXxOY_p9D4cAGSmGC75S-80" value="edad number" style="rounded=1;whiteSpace=wrap;html=1;" vertex="1" parent="1">
          <mxGeometry x="60" y="1060" width="90" height="30" as="geometry" />
        </mxCell>
        <mxCell id="LXxOY_p9D4cAGSmGC75S-81" value="tieneHijos boolean" style="rounded=1;whiteSpace=wrap;html=1;" vertex="1" parent="1">
          <mxGeometry x="60" y="1100" width="90" height="30" as="geometry" />
        </mxCell>
        <mxCell id="LXxOY_p9D4cAGSmGC75S-82" value="nombre string" style="rounded=1;whiteSpace=wrap;html=1;" vertex="1" parent="1">
          <mxGeometry x="60" y="1020" width="90" height="30" as="geometry" />
        </mxCell>
        <mxCell id="LXxOY_p9D4cAGSmGC75S-84" value="Usuario" style="rounded=1;whiteSpace=wrap;html=1;" vertex="1" parent="1">
          <mxGeometry x="-60" y="1190" width="120" height="60" as="geometry" />
        </mxCell>
        <mxCell id="LXxOY_p9D4cAGSmGC75S-85" value="edad number" style="rounded=1;whiteSpace=wrap;html=1;" vertex="1" parent="1">
          <mxGeometry x="70" y="1190" width="90" height="30" as="geometry" />
        </mxCell>
        <mxCell id="LXxOY_p9D4cAGSmGC75S-86" value="tieneHijos boolean" style="rounded=1;whiteSpace=wrap;html=1;" vertex="1" parent="1">
          <mxGeometry x="70" y="1230" width="90" height="30" as="geometry" />
        </mxCell>
        <mxCell id="LXxOY_p9D4cAGSmGC75S-87" value="nombre string" style="rounded=1;whiteSpace=wrap;html=1;" vertex="1" parent="1">
          <mxGeometry x="70" y="1150" width="90" height="30" as="geometry" />
        </mxCell>
        <mxCell id="LXxOY_p9D4cAGSmGC75S-88" value="edad number" style="rounded=1;whiteSpace=wrap;html=1;" vertex="1" parent="1">
          <mxGeometry x="-70" y="1280" width="90" height="30" as="geometry" />
        </mxCell>
        <mxCell id="LXxOY_p9D4cAGSmGC75S-89" value="edad number" style="rounded=1;whiteSpace=wrap;html=1;" vertex="1" parent="1">
          <mxGeometry x="-70" y="1320" width="90" height="30" as="geometry" />
        </mxCell>
        <mxCell id="LXxOY_p9D4cAGSmGC75S-90" value="Usuario" style="rounded=1;whiteSpace=wrap;html=1;" vertex="1" parent="1">
          <mxGeometry x="-60" y="1520" width="120" height="60" as="geometry" />
        </mxCell>
        <mxCell id="LXxOY_p9D4cAGSmGC75S-91" value="edad number" style="rounded=1;whiteSpace=wrap;html=1;" vertex="1" parent="1">
          <mxGeometry x="80" y="1520" width="90" height="30" as="geometry" />
        </mxCell>
        <mxCell id="LXxOY_p9D4cAGSmGC75S-92" value="tieneHijos boolean" style="rounded=1;whiteSpace=wrap;html=1;" vertex="1" parent="1">
          <mxGeometry x="80" y="1560" width="90" height="30" as="geometry" />
        </mxCell>
        <mxCell id="LXxOY_p9D4cAGSmGC75S-93" value="nombre string" style="rounded=1;whiteSpace=wrap;html=1;" vertex="1" parent="1">
          <mxGeometry x="80" y="1480" width="90" height="30" as="geometry" />
        </mxCell>
        <mxCell id="LXxOY_p9D4cAGSmGC75S-94" value="Mascotas" style="rounded=1;whiteSpace=wrap;html=1;" vertex="1" parent="1">
          <mxGeometry x="80" y="1600" width="90" height="60" as="geometry" />
        </mxCell>
        <mxCell id="LXxOY_p9D4cAGSmGC75S-95" value="nombreMascota string" style="rounded=1;whiteSpace=wrap;html=1;" vertex="1" parent="1">
          <mxGeometry x="230" y="1600" width="125" height="30" as="geometry" />
        </mxCell>
        <mxCell id="LXxOY_p9D4cAGSmGC75S-119" value="" style="rounded=0;whiteSpace=wrap;html=1;" vertex="1" parent="1">
          <mxGeometry x="190" y="1600" width="30" height="160" as="geometry" />
        </mxCell>
        <mxCell id="LXxOY_p9D4cAGSmGC75S-120" value="nombreMascota string" style="rounded=1;whiteSpace=wrap;html=1;" vertex="1" parent="1">
          <mxGeometry x="230" y="1640" width="125" height="30" as="geometry" />
        </mxCell>
        <mxCell id="LXxOY_p9D4cAGSmGC75S-121" value="nombreMascota string" style="rounded=1;whiteSpace=wrap;html=1;" vertex="1" parent="1">
          <mxGeometry x="230" y="1680" width="125" height="30" as="geometry" />
        </mxCell>
        <mxCell id="LXxOY_p9D4cAGSmGC75S-122" value="nombreMascota string" style="rounded=1;whiteSpace=wrap;html=1;" vertex="1" parent="1">
          <mxGeometry x="230" y="1720" width="125" height="30" as="geometry" />
        </mxCell>
      </root>
    </mxGraphModel>
  </diagram>
</mxfile>
